<svg width="16" height="23" viewBox="0 0 16 23" fill="none" xmlns="http://www.w3.org/2000/svg">
<path d="M11.6436 5.93702C12.7524 6.55123 13.6731 7.43498 14.3131 8.49932C14.9531 9.56367 15.2899 10.7711 15.2894 12V20H10.9456C10.7304 20.5856 10.3313 21.0926 9.80335 21.4512C9.27537 21.8099 8.64451 22.0025 7.99772 22.0025C7.35094 22.0025 6.72008 21.8099 6.1921 21.4512C5.66412 21.0926 5.26502 20.5856 5.04981 20H0.706055V12C0.705588 10.7711 1.0423 9.56367 1.68232 8.49932C2.32234 7.43498 3.24308 6.55123 4.35189 5.93702C4.18073 5.64189 4.04946 5.32702 3.96126 5.00002H0.706055V3.00002H3.96231C4.19401 2.14178 4.71603 1.3817 5.44641 0.839092C6.17679 0.296486 7.07418 0.0020752 7.99772 0.0020752C8.92126 0.0020752 9.81866 0.296486 10.549 0.839092C11.2794 1.3817 11.8014 2.14178 12.0331 3.00002H15.2894V5.00002H12.0331C11.9451 5.32677 11.8146 5.64158 11.6446 5.93702H11.6436ZM7.99772 13C7.72145 13 7.4565 13.1054 7.26115 13.2929C7.0658 13.4804 6.95606 13.7348 6.95606 14V19C6.95606 19.2652 7.0658 19.5196 7.26115 19.7071C7.4565 19.8947 7.72145 20 7.99772 20C8.27399 20 8.53894 19.8947 8.73429 19.7071C8.92964 19.5196 9.03939 19.2652 9.03939 19V14C9.03939 13.7348 8.92964 13.4804 8.73429 13.2929C8.53894 13.1054 8.27399 13 7.99772 13ZM7.99772 6.00002C8.55026 6.00002 9.08016 5.78931 9.47086 5.41423C9.86156 5.03916 10.0811 4.53045 10.0811 4.00002C10.0811 3.46959 9.86156 2.96088 9.47086 2.58581C9.08016 2.21073 8.55026 2.00002 7.99772 2.00002C7.44519 2.00002 6.91528 2.21073 6.52458 2.58581C6.13388 2.96088 5.91439 3.46959 5.91439 4.00002C5.91439 4.53045 6.13388 5.03916 6.52458 5.41423C6.91528 5.78931 7.44519 6.00002 7.99772 6.00002Z" fill="white"/>
</svg>
